<?xml version="1.0" standalone="no"?>
<!DOCTYPE svg PUBLIC "-//W3C//DTD SVG 20010904//EN"
 "http://www.w3.org/TR/2001/REC-SVG-20010904/DTD/svg10.dtd">
<svg version="1.0" xmlns="http://www.w3.org/2000/svg"
 width="1000.000000pt" height="1000.000000pt" viewBox="0 0 1000.000000 1000.000000"
 preserveAspectRatio="xMidYMid meet">

<g transform="translate(0.000000,1000.000000) scale(0.100000,-0.100000)"
fill="#000000" stroke="none">
<path d="M4670 9959 c-523 -35 -1056 -160 -1554 -363 -1527 -624 -2659 -1993
-2985 -3612 -392 -1946 389 -3916 2007 -5063 831 -589 1846 -911 2872 -911
1027 0 2041 322 2872 911 1040 737 1758 1838 2007 3075 331 1644 -171 3321
-1349 4505 -863 867 -1988 1378 -3215 1459 -174 11 -475 11 -655 -1z m655 -10
c1101 -72 2114 -489 2951 -1214 144 -125 416 -401 533 -540 120 -145 266 -341
364 -490 1075 -1646 1075 -3784 0 -5430 -298 -455 -688 -878 -1128 -1220 -133
-104 -409 -289 -560 -376 -1346 -771 -2975 -870 -4408 -268 -601 253 -1148
627 -1618 1106 -181 185 -281 302 -429 498 -1248 1660 -1322 3947 -183 5690
298 455 688 878 1128 1220 133 104 410 290 560 375 846 485 1826 713 2790 649z"/>
<path d="M2350 7193 c-148 -25 -259 -80 -337 -165 -52 -58 -77 -107 -93 -183
-18 -87 -4 -3868 14 -3949 34 -146 170 -266 353 -314 64 -16 235 -17 2723 -17
l2655 0 83 24 c130 37 249 127 300 228 46 90 45 47 38 2073 -5 1255 -11 1932
-18 1965 -30 148 -165 272 -350 322 -59 16 -231 18 -2703 19 -1452 1 -2651 -1
-2665 -3z m2415 -2183 l0 -450 28 -27 27 -28 265 0 265 0 27 28 28 27 0 450 0
450 1115 0 c1211 0 1179 1 1291 -56 70 -35 134 -97 164 -158 l25 -52 -2 -1149
-3 -1150 -27 -46 c-51 -87 -147 -153 -265 -184 -86 -23 -5295 -22 -5391 0
-120 28 -217 95 -270 184 l-27 46 0 1160 0 1160 27 46 c50 85 146 153 261 184
43 11 253 14 1257 14 l1205 1 0 -450z m555 5 l0 -425 -235 0 -235 0 0 425 0
425 235 0 235 0 0 -425z"/>
</g>
</svg>
