<?xml version="1.0" standalone="no"?>
<!DOCTYPE svg PUBLIC "-//W3C//DTD SVG 20010904//EN"
 "http://www.w3.org/TR/2001/REC-SVG-20010904/DTD/svg10.dtd">
<svg version="1.0" xmlns="http://www.w3.org/2000/svg"
 width="1000.000000pt" height="1000.000000pt" viewBox="0 0 1000.000000 1000.000000"
 preserveAspectRatio="xMidYMid meet">

<g transform="translate(0.000000,1000.000000) scale(0.100000,-0.100000)"
fill="#000000" stroke="none">
<path d="M4670 9959 c-523 -35 -1056 -160 -1554 -363 -1527 -624 -2659 -1993
-2985 -3612 -392 -1946 389 -3916 2007 -5063 831 -589 1846 -911 2872 -911
1027 0 2041 322 2872 911 1040 737 1758 1838 2007 3075 331 1644 -171 3321
-1349 4505 -863 867 -1988 1378 -3215 1459 -174 11 -475 11 -655 -1z m655 -10
c1101 -72 2114 -489 2951 -1214 144 -125 416 -401 533 -540 120 -145 266 -341
364 -490 1075 -1646 1075 -3784 0 -5430 -298 -455 -688 -878 -1128 -1220 -133
-104 -409 -289 -560 -376 -1346 -771 -2975 -870 -4408 -268 -601 253 -1148
627 -1618 1106 -181 185 -281 302 -429 498 -1248 1660 -1322 3947 -183 5690
298 455 688 878 1128 1220 133 104 410 290 560 375 846 485 1826 713 2790 649z"/>
<path d="M3375 7721 c-11 -5 -29 -19 -40 -31 -19 -21 -20 -36 -20 -260 0 -233
0 -239 23 -262 l22 -24 0 -2106 c0 -1884 -2 -2108 -16 -2136 -12 -26 -15 -68
-12 -251 l3 -221 28 -27 27 -28 1640 0 1640 0 27 28 28 27 3 221 c3 183 0 225
-12 251 -14 28 -16 252 -16 2136 l0 2106 23 24 c22 23 22 29 22 263 l0 239
-28 27 -27 28 -1648 2 c-906 1 -1656 -2 -1667 -6z m585 -291 l0 -210 -280 0
-280 0 0 210 0 210 280 0 280 0 0 -210z m1070 0 l0 -210 -495 0 -495 0 0 210
0 210 495 0 495 0 0 -210z m1060 0 l0 -210 -490 0 -490 0 0 210 0 210 490 0
490 0 0 -210z m570 0 l0 -210 -250 0 -250 0 0 210 0 210 250 0 250 0 0 -210z
m-50 -2385 l0 -2085 -1580 0 -1580 0 0 2085 0 2085 1580 0 1580 0 0 -2085z
m-2800 -2380 l0 -205 -195 0 -195 0 0 205 0 205 195 0 195 0 0 -205z m1070 0
l0 -205 -495 0 -495 0 0 205 0 205 495 0 495 0 0 -205z m1060 0 l0 -205 -490
0 -490 0 0 205 0 205 490 0 490 0 0 -205z m700 0 l0 -205 -315 0 -315 0 0 205
0 205 315 0 315 0 0 -205z"/>
</g>
</svg>
