<?xml version="1.0" standalone="no"?>
<!DOCTYPE svg PUBLIC "-//W3C//DTD SVG 20010904//EN"
 "http://www.w3.org/TR/2001/REC-SVG-20010904/DTD/svg10.dtd">
<svg version="1.0" xmlns="http://www.w3.org/2000/svg"
 width="1000.000000pt" height="1000.000000pt" viewBox="0 0 1000.000000 1000.000000"
 preserveAspectRatio="xMidYMid meet">

<g transform="translate(0.000000,1000.000000) scale(0.100000,-0.100000)"
fill="#000000" stroke="none">
<path d="M4670 9959 c-523 -35 -1056 -160 -1554 -363 -1527 -624 -2659 -1993
-2985 -3612 -392 -1946 389 -3916 2007 -5063 831 -589 1846 -911 2872 -911
1027 0 2041 322 2872 911 1040 737 1758 1838 2007 3075 331 1644 -171 3321
-1349 4505 -863 867 -1988 1378 -3215 1459 -174 11 -475 11 -655 -1z m655 -10
c1101 -72 2114 -489 2951 -1214 144 -125 416 -401 533 -540 120 -145 266 -341
364 -490 1075 -1646 1075 -3784 0 -5430 -298 -455 -688 -878 -1128 -1220 -133
-104 -409 -289 -560 -376 -1346 -771 -2975 -870 -4408 -268 -601 253 -1148
627 -1618 1106 -181 185 -281 302 -429 498 -1248 1660 -1322 3947 -183 5690
298 455 688 878 1128 1220 133 104 410 290 560 375 846 485 1826 713 2790 649z"/>
<path d="M2885 7270 c-20 -22 -22 -17 145 -335 32 -60 104 -200 160 -310 56
-110 126 -245 155 -300 59 -112 158 -304 295 -570 51 -99 116 -225 145 -280
29 -55 90 -172 135 -260 97 -188 206 -399 300 -580 37 -71 106 -204 152 -295
182 -351 227 -439 285 -550 33 -63 99 -189 146 -280 46 -91 115 -223 152 -295
37 -71 106 -204 153 -295 46 -91 91 -173 99 -182 10 -10 24 -15 41 -12 45 8
30 -41 147 494 31 140 73 336 95 435 22 99 58 263 80 364 22 102 43 187 46
190 3 3 19 6 37 7 18 1 57 4 87 8 110 12 148 16 206 20 32 2 91 7 129 11 39 3
90 8 115 11 83 7 255 24 290 29 40 4 131 13 205 20 148 12 203 17 230 21 17 2
62 6 100 9 116 10 153 55 94 113 -18 18 -37 32 -42 32 -6 0 -33 17 -61 38 -28
21 -111 78 -184 127 -74 50 -160 108 -192 130 -32 22 -89 61 -127 86 -37 26
-140 96 -228 156 -88 60 -178 121 -200 136 -22 14 -61 42 -87 62 -25 19 -49
35 -54 35 -4 0 -25 14 -48 30 -96 71 -166 120 -172 120 -3 0 -23 14 -44 30
-21 17 -42 30 -47 30 -4 0 -24 13 -43 28 -31 25 -105 76 -175 122 -13 8 -82
56 -154 105 -72 50 -146 99 -164 110 -19 11 -52 35 -74 53 -23 17 -44 32 -48
32 -5 0 -24 12 -44 28 -20 15 -106 74 -191 131 -85 57 -181 122 -214 145 -32
23 -82 57 -111 76 -92 62 -186 126 -345 235 -251 172 -291 199 -324 219 -17
11 -50 34 -73 53 -23 18 -44 33 -47 33 -7 0 -140 91 -176 119 -14 12 -29 21
-33 21 -5 0 -28 16 -51 35 -24 19 -47 35 -51 35 -5 0 -24 12 -42 26 -95 73
-319 214 -338 214 -12 0 -30 -9 -40 -20z m261 -245 c23 -19 46 -35 51 -35 4 0
32 -18 61 -40 29 -22 54 -40 56 -40 3 0 89 -57 220 -147 38 -27 77 -53 85 -58
36 -23 107 -71 116 -78 15 -11 270 -186 420 -288 247 -167 420 -285 498 -339
43 -30 89 -62 102 -70 13 -8 83 -55 155 -105 72 -49 148 -101 169 -115 101
-66 180 -122 191 -135 7 -8 16 -15 21 -15 9 0 136 -85 337 -224 41 -28 84 -58
97 -66 13 -8 102 -68 197 -133 95 -65 236 -162 313 -214 215 -147 438 -298
568 -385 64 -44 117 -83 117 -89 0 -5 -24 -10 -52 -11 -29 -1 -60 -2 -68 -3
-8 -1 -49 -5 -90 -9 -41 -4 -86 -9 -100 -11 -14 -2 -63 -7 -110 -10 -47 -4
-98 -8 -115 -9 -16 -2 -64 -7 -105 -11 -41 -4 -88 -9 -105 -11 -16 -1 -68 -5
-115 -9 -47 -3 -96 -8 -110 -10 -22 -4 -104 -12 -310 -31 -83 -8 -81 -8 -106
-21 -21 -12 -23 -18 -83 -298 -17 -77 -55 -255 -86 -395 -31 -140 -67 -307
-80 -370 -14 -63 -29 -131 -34 -150 -5 -19 -13 -56 -16 -83 -4 -26 -10 -49
-14 -52 -4 -2 -35 51 -69 118 -35 67 -95 185 -136 262 -68 131 -143 276 -339
655 -44 85 -110 214 -147 285 -37 72 -102 198 -145 280 -43 83 -110 213 -150
290 -40 77 -112 217 -160 310 -48 94 -109 211 -135 260 -68 129 -176 337 -276
532 -48 92 -112 218 -144 278 -31 61 -96 184 -142 275 -47 91 -131 254 -187
363 -56 108 -99 197 -95 197 4 0 26 -16 50 -35z"/>
</g>
</svg>
