<?xml version="1.0" standalone="no"?>
<!DOCTYPE svg PUBLIC "-//W3C//DTD SVG 20010904//EN"
 "http://www.w3.org/TR/2001/REC-SVG-20010904/DTD/svg10.dtd">
<svg version="1.0" xmlns="http://www.w3.org/2000/svg"
 width="1000.000000pt" height="1000.000000pt" viewBox="0 0 1000.000000 1000.000000"
 preserveAspectRatio="xMidYMid meet">

<g transform="translate(0.000000,1000.000000) scale(0.100000,-0.100000)"
fill="#000000" stroke="none">
<path d="M4670 9959 c-523 -35 -1056 -160 -1554 -363 -1527 -624 -2659 -1993
-2985 -3612 -392 -1946 389 -3916 2007 -5063 831 -589 1846 -911 2872 -911
1027 0 2041 322 2872 911 1040 737 1758 1838 2007 3075 331 1644 -171 3321
-1349 4505 -863 867 -1988 1378 -3215 1459 -174 11 -475 11 -655 -1z m655 -10
c1101 -72 2114 -489 2951 -1214 144 -125 416 -401 533 -540 120 -145 266 -341
364 -490 1075 -1646 1075 -3784 0 -5430 -298 -455 -688 -878 -1128 -1220 -133
-104 -409 -289 -560 -376 -1346 -771 -2975 -870 -4408 -268 -601 253 -1148
627 -1618 1106 -181 185 -281 302 -429 498 -1248 1660 -1322 3947 -183 5690
298 455 688 878 1128 1220 133 104 410 290 560 375 846 485 1826 713 2790 649z"/>
<path d="M4735 9150 c-274 -29 -592 -115 -890 -242 -446 -191 -799 -418 -1222
-790 -111 -97 -113 -100 -113 -142 0 -31 6 -48 23 -63 32 -30 365 -243 397
-254 40 -14 64 -1 180 101 489 430 1041 711 1541 784 219 32 604 12 835 -44
241 -58 462 -139 681 -249 93 -46 292 -159 311 -176 1 -1 -36 -35 -82 -75 -91
-78 -114 -117 -97 -161 5 -14 16 -31 25 -38 8 -7 123 -37 253 -66 312 -69 390
-91 665 -185 127 -44 247 -80 268 -80 47 0 80 33 80 79 0 39 -126 433 -185
581 -62 152 -254 572 -272 592 -8 9 -28 20 -45 23 -54 12 -81 -9 -147 -120
l-63 -103 -96 62 c-382 245 -757 403 -1204 505 -230 52 -637 82 -843 61z"/>
<path d="M1702 6923 c-87 -20 -175 -82 -228 -160 -79 -115 -74 -5 -74 -1758 0
-1753 -5 -1643 74 -1758 56 -82 140 -140 235 -161 61 -14 178 -16 931 -16 753
0 870 2 931 16 95 21 179 79 235 161 79 115 74 5 74 1758 0 1753 5 1643 -74
1758 -56 82 -140 140 -235 161 -61 14 -177 16 -938 15 -733 -1 -878 -3 -931
-16z m1910 -101 c60 -30 120 -90 150 -150 l23 -47 0 -1620 0 -1620 -23 -47
c-30 -60 -90 -120 -150 -150 l-47 -23 -925 0 -925 0 -47 23 c-60 30 -120 90
-150 150 l-23 47 -3 1600 c-2 1196 0 1611 9 1643 23 84 108 174 196 207 32 11
185 13 953 12 l915 -2 47 -23z"/>
<path d="M6492 6923 c-87 -20 -175 -82 -228 -160 -79 -115 -74 -5 -74 -1758 0
-1753 -5 -1643 74 -1758 56 -82 140 -140 235 -161 61 -14 178 -16 931 -16 753
0 870 2 931 16 95 21 179 79 235 161 79 115 74 5 74 1758 0 1753 5 1643 -74
1758 -56 82 -140 140 -235 161 -61 14 -177 16 -938 15 -733 -1 -878 -3 -931
-16z m1910 -101 c60 -30 120 -90 150 -150 l23 -47 0 -1620 0 -1620 -23 -47
c-30 -60 -90 -120 -150 -150 l-47 -23 -925 0 -925 0 -47 23 c-60 30 -120 90
-150 150 l-23 47 -3 1600 c-2 1196 0 1611 9 1643 23 84 108 174 196 207 32 11
185 13 953 12 l915 -2 47 -23z"/>
<path d="M2472 2497 c-14 -15 -22 -36 -22 -59 0 -41 149 -451 222 -613 28 -60
99 -207 159 -326 117 -233 130 -249 197 -234 39 8 60 33 116 138 26 48 49 87
51 87 3 0 44 -24 92 -53 320 -193 651 -330 1027 -422 240 -59 324 -72 556 -86
292 -17 504 1 767 66 262 65 445 135 733 281 376 190 672 399 1020 722 69 64
130 125 137 136 18 30 16 81 -4 104 -19 21 -358 227 -401 243 -47 18 -78 0
-199 -113 -427 -398 -902 -674 -1368 -793 -193 -49 -300 -59 -580 -52 -211 6
-257 10 -385 36 -332 68 -627 177 -910 336 l-104 58 90 82 c83 78 89 85 89
123 0 25 -7 48 -19 61 -20 22 -30 25 -331 80 -256 47 -302 59 -610 152 -127
38 -247 69 -266 69 -24 0 -42 -7 -57 -23z"/>
</g>
</svg>
